%TF.GenerationSoftware,KiCad,Pcbnew,9.0.7*%
%TF.CreationDate,2026-02-28T21:28:02-06:00*%
%TF.ProjectId,ESP32_MP3_Jukebox,45535033-325f-44d5-9033-5f4a756b6562,1.0*%
%TF.SameCoordinates,Original*%
%TF.FileFunction,Copper,L1,Top*%
%TF.FilePolarity,Positive*%
%FSLAX46Y46*%
G04 Gerber Fmt 4.6, Leading zero omitted, Abs format (unit mm)*
G04 Created by KiCad (PCBNEW 9.0.7) date 2026-02-28 21:28:02*
%MOMM*%
%LPD*%
G01*
G04 APERTURE LIST*
%TA.AperFunction,ComponentPad*%
%ADD10C,1.524000*%
%TD*%
%TA.AperFunction,ComponentPad*%
%ADD11C,1.700000*%
%TD*%
%TA.AperFunction,ComponentPad*%
%ADD12R,1.700000X1.700000*%
%TD*%
%TA.AperFunction,ComponentPad*%
%ADD13C,1.308000*%
%TD*%
%TA.AperFunction,ComponentPad*%
%ADD14R,1.308000X1.308000*%
%TD*%
%TA.AperFunction,ComponentPad*%
%ADD15R,2.000000X1.200000*%
%TD*%
%TA.AperFunction,ComponentPad*%
%ADD16O,2.000000X1.200000*%
%TD*%
%TA.AperFunction,Conductor*%
%ADD17C,1.000000*%
%TD*%
%TA.AperFunction,Conductor*%
%ADD18C,0.250000*%
%TD*%
%TA.AperFunction,Conductor*%
%ADD19C,0.500000*%
%TD*%
G04 APERTURE END LIST*
D10*
%TO.P,U2,9,L-*%
%TO.N,Net-(J1-Pin_1)*%
X35620000Y-74780000D03*
%TO.P,U2,8,L+*%
%TO.N,Net-(J1-Pin_2)*%
X33080000Y-74780000D03*
%TO.P,U2,7,R+*%
%TO.N,Net-(J2-Pin_1)*%
X22920000Y-74780000D03*
%TO.P,U2,6,R-*%
%TO.N,Net-(J2-Pin_2)*%
X20380000Y-74780000D03*
%TO.P,U2,5,gnd*%
%TO.N,GND*%
X20380000Y-55730000D03*
%TO.P,U2,4,vin*%
%TO.N,+5V*%
X22920000Y-55730000D03*
%TO.P,U2,3,R*%
%TO.N,Net-(U1-DAC_R)*%
X30540000Y-55730000D03*
%TO.P,U2,2,T*%
%TO.N,GND*%
X33080000Y-55730000D03*
%TO.P,U2,1,L*%
%TO.N,Net-(U1-DAC_L)*%
X35620000Y-55730000D03*
%TD*%
D11*
%TO.P,J5,2,Pin_2*%
%TO.N,GND*%
X56500000Y-80500000D03*
D12*
%TO.P,J5,1,Pin_1*%
%TO.N,+5V*%
X53960000Y-80500000D03*
%TD*%
%TO.P,J2,1,Pin_1*%
%TO.N,Net-(J2-Pin_1)*%
X23160000Y-80500000D03*
D11*
%TO.P,J2,2,Pin_2*%
%TO.N,Net-(J2-Pin_2)*%
X20620000Y-80500000D03*
%TD*%
%TO.P,Brd1,4,SDA*%
%TO.N,Net-(Brd1-SDA)*%
X66900000Y-26350000D03*
%TO.P,Brd1,3,SCL*%
%TO.N,Net-(Brd1-SCL)*%
X66900000Y-23810000D03*
%TO.P,Brd1,2,VCC*%
%TO.N,+3.3V*%
X66900000Y-21270000D03*
D12*
%TO.P,Brd1,1,GND*%
%TO.N,GND*%
X66900000Y-18730000D03*
%TD*%
D13*
%TO.P,U1,4,DAC_R*%
%TO.N,Net-(U1-DAC_R)*%
X37017000Y-41770000D03*
%TO.P,U1,5,DAC_L*%
%TO.N,Net-(U1-DAC_L)*%
X37017000Y-39230000D03*
%TO.P,U1,13,ADKEY2*%
%TO.N,unconnected-(U1-ADKEY2-Pad13)*%
X18983000Y-41770000D03*
%TO.P,U1,12,ADKEY1*%
%TO.N,unconnected-(U1-ADKEY1-Pad12)*%
X18983000Y-39230000D03*
%TO.P,U1,6,SPK1*%
%TO.N,unconnected-(U1-SPK1-Pad6)*%
X37017000Y-36690000D03*
%TO.P,U1,3,TX*%
%TO.N,Net-(U1-TX)*%
X37017000Y-44310000D03*
%TO.P,U1,14,USB+*%
%TO.N,unconnected-(U1-USB+-Pad14)*%
X18983000Y-44310000D03*
%TO.P,U1,11,IO2*%
%TO.N,unconnected-(U1-IO2-Pad11)*%
X18983000Y-36690000D03*
%TO.P,U1,2,RX*%
%TO.N,Net-(U1-RX)*%
X37017000Y-46850000D03*
%TO.P,U1,15,USB-*%
%TO.N,unconnected-(U1-USB--Pad15)*%
X18983000Y-46850000D03*
%TO.P,U1,7,GND*%
%TO.N,GND*%
X37017000Y-34150000D03*
%TO.P,U1,10,GND*%
X18983000Y-34150000D03*
D14*
%TO.P,U1,1,VCC*%
%TO.N,+5V*%
X37017000Y-49390000D03*
D13*
%TO.P,U1,16,BUSY*%
%TO.N,unconnected-(U1-BUSY-Pad16)*%
X18983000Y-49390000D03*
%TO.P,U1,8,SPK2*%
%TO.N,unconnected-(U1-SPK2-Pad8)*%
X37017000Y-31610000D03*
%TO.P,U1,9,IO1*%
%TO.N,unconnected-(U1-IO1-Pad9)*%
X18983000Y-31610000D03*
%TD*%
D11*
%TO.P,J1,2,Pin_2*%
%TO.N,Net-(J1-Pin_2)*%
X32695000Y-80500000D03*
D12*
%TO.P,J1,1,Pin_1*%
%TO.N,Net-(J1-Pin_1)*%
X35235000Y-80500000D03*
%TD*%
D11*
%TO.P,SW2,2,2*%
%TO.N,GND*%
X52220000Y-22270000D03*
D12*
%TO.P,SW2,1,1*%
%TO.N,Net-(U3-MTDI{slash}GPIO12{slash}ADC2_CH5)*%
X52220000Y-19730000D03*
%TD*%
D11*
%TO.P,RV1,3,3*%
%TO.N,GND*%
X41500000Y-24040000D03*
%TO.P,RV1,2,2*%
%TO.N,Net-(U3-VDET_1{slash}GPIO34{slash}ADC1_CH6)*%
X41500000Y-21500000D03*
D12*
%TO.P,RV1,1,1*%
%TO.N,+3.3V*%
X41500000Y-18960000D03*
%TD*%
D11*
%TO.P,SW1,2,2*%
%TO.N,GND*%
X47630000Y-22270000D03*
D12*
%TO.P,SW1,1,1*%
%TO.N,Net-(U3-MTCK{slash}GPIO13{slash}ADC2_CH4)*%
X47630000Y-19730000D03*
%TD*%
D11*
%TO.P,SW3,2,2*%
%TO.N,GND*%
X56810000Y-22270000D03*
D12*
%TO.P,SW3,1,1*%
%TO.N,Net-(U3-MTMS{slash}GPIO14{slash}ADC2_CH6)*%
X56810000Y-19730000D03*
%TD*%
%TO.P,SW4,1,1*%
%TO.N,Net-(U3-ADC2_CH7{slash}GPIO27)*%
X61400000Y-19730000D03*
D11*
%TO.P,SW4,2,2*%
%TO.N,GND*%
X61400000Y-22270000D03*
%TD*%
D15*
%TO.P,U3,1,3V3*%
%TO.N,+3.3V*%
X42000000Y-31596560D03*
D16*
%TO.P,U3,2,CHIP_PU*%
%TO.N,unconnected-(U3-CHIP_PU-Pad2)*%
X42000000Y-34136560D03*
%TO.P,U3,3,SENSOR_VP/GPIO36/ADC1_CH0*%
%TO.N,unconnected-(U3-SENSOR_VP{slash}GPIO36{slash}ADC1_CH0-Pad3)*%
X42000000Y-36676560D03*
%TO.P,U3,4,SENSOR_VN/GPIO39/ADC1_CH3*%
%TO.N,unconnected-(U3-SENSOR_VN{slash}GPIO39{slash}ADC1_CH3-Pad4)*%
X42000000Y-39216560D03*
%TO.P,U3,5,VDET_1/GPIO34/ADC1_CH6*%
%TO.N,Net-(U3-VDET_1{slash}GPIO34{slash}ADC1_CH6)*%
X42000000Y-41756560D03*
%TO.P,U3,6,VDET_2/GPIO35/ADC1_CH7*%
%TO.N,unconnected-(U3-VDET_2{slash}GPIO35{slash}ADC1_CH7-Pad6)*%
X42000000Y-44296560D03*
%TO.P,U3,7,32K_XP/GPIO32/ADC1_CH4*%
%TO.N,unconnected-(U3-32K_XP{slash}GPIO32{slash}ADC1_CH4-Pad7)*%
X42000000Y-46836560D03*
%TO.P,U3,8,32K_XN/GPIO33/ADC1_CH5*%
%TO.N,unconnected-(U3-32K_XN{slash}GPIO33{slash}ADC1_CH5-Pad8)*%
X42000000Y-49376560D03*
%TO.P,U3,9,DAC_1/ADC2_CH8/GPIO25*%
%TO.N,unconnected-(U3-DAC_1{slash}ADC2_CH8{slash}GPIO25-Pad9)*%
X42000000Y-51916560D03*
%TO.P,U3,10,DAC_2/ADC2_CH9/GPIO26*%
%TO.N,unconnected-(U3-DAC_2{slash}ADC2_CH9{slash}GPIO26-Pad10)*%
X42000000Y-54456560D03*
%TO.P,U3,11,ADC2_CH7/GPIO27*%
%TO.N,Net-(U3-ADC2_CH7{slash}GPIO27)*%
X42000000Y-56996560D03*
%TO.P,U3,12,MTMS/GPIO14/ADC2_CH6*%
%TO.N,Net-(U3-MTMS{slash}GPIO14{slash}ADC2_CH6)*%
X42000000Y-59536560D03*
%TO.P,U3,13,MTDI/GPIO12/ADC2_CH5*%
%TO.N,Net-(U3-MTDI{slash}GPIO12{slash}ADC2_CH5)*%
X42000000Y-62076560D03*
%TO.P,U3,14,GND*%
%TO.N,GND*%
X42000000Y-64616560D03*
%TO.P,U3,15,MTCK/GPIO13/ADC2_CH4*%
%TO.N,Net-(U3-MTCK{slash}GPIO13{slash}ADC2_CH4)*%
X42000000Y-67156560D03*
%TO.P,U3,16,SD_DATA2/GPIO9*%
%TO.N,unconnected-(U3-SD_DATA2{slash}GPIO9-Pad16)*%
X42000000Y-69696560D03*
%TO.P,U3,17,SD_DATA3/GPIO10*%
%TO.N,unconnected-(U3-SD_DATA3{slash}GPIO10-Pad17)*%
X42000000Y-72236560D03*
%TO.P,U3,18,CMD*%
%TO.N,unconnected-(U3-CMD-Pad18)*%
X42000000Y-74776560D03*
%TO.P,U3,19,5V*%
%TO.N,+5V*%
X42000000Y-77316560D03*
%TO.P,U3,20,SD_CLK/GPIO6*%
%TO.N,unconnected-(U3-SD_CLK{slash}GPIO6-Pad20)*%
X67396320Y-77313840D03*
%TO.P,U3,21,SD_DATA0/GPIO7*%
%TO.N,unconnected-(U3-SD_DATA0{slash}GPIO7-Pad21)*%
X67396320Y-74773840D03*
%TO.P,U3,22,SD_DATA1/GPIO8*%
%TO.N,unconnected-(U3-SD_DATA1{slash}GPIO8-Pad22)*%
X67400000Y-72236560D03*
%TO.P,U3,23,MTDO/GPIO15/ADC2_CH3*%
%TO.N,unconnected-(U3-MTDO{slash}GPIO15{slash}ADC2_CH3-Pad23)*%
X67400000Y-69696560D03*
%TO.P,U3,24,ADC2_CH2/GPIO2*%
%TO.N,unconnected-(U3-ADC2_CH2{slash}GPIO2-Pad24)*%
X67400000Y-67156560D03*
%TO.P,U3,25,GPIO0/BOOT/ADC2_CH1*%
%TO.N,unconnected-(U3-GPIO0{slash}BOOT{slash}ADC2_CH1-Pad25)*%
X67400000Y-64616560D03*
%TO.P,U3,26,ADC2_CH0/GPIO4*%
%TO.N,unconnected-(U3-ADC2_CH0{slash}GPIO4-Pad26)*%
X67400000Y-62076560D03*
%TO.P,U3,27,GPIO16*%
%TO.N,Net-(U1-TX)*%
X67400000Y-59536560D03*
%TO.P,U3,28,GPIO17*%
%TO.N,Net-(U1-RX)*%
X67400000Y-56996560D03*
%TO.P,U3,29,GPIO5*%
%TO.N,unconnected-(U3-GPIO5-Pad29)*%
X67400000Y-54456560D03*
%TO.P,U3,30,GPIO18*%
%TO.N,unconnected-(U3-GPIO18-Pad30)*%
X67400000Y-51916560D03*
%TO.P,U3,31,GPIO19*%
%TO.N,unconnected-(U3-GPIO19-Pad31)*%
X67400000Y-49376560D03*
%TO.P,U3,32,GND*%
%TO.N,GND*%
X67400000Y-46836560D03*
%TO.P,U3,33,GPIO21*%
%TO.N,Net-(Brd1-SDA)*%
X67400000Y-44296560D03*
%TO.P,U3,34,U0RXD/GPIO3*%
%TO.N,unconnected-(U3-U0RXD{slash}GPIO3-Pad34)*%
X67400000Y-41756560D03*
%TO.P,U3,35,U0TXD/GPIO1*%
%TO.N,unconnected-(U3-U0TXD{slash}GPIO1-Pad35)*%
X67400000Y-39216560D03*
%TO.P,U3,36,GPIO22*%
%TO.N,Net-(Brd1-SCL)*%
X67400000Y-36676560D03*
%TO.P,U3,37,GPIO23*%
%TO.N,unconnected-(U3-GPIO23-Pad37)*%
X67400000Y-34136560D03*
%TO.P,U3,38,GND*%
%TO.N,GND*%
X67400000Y-31596560D03*
%TD*%
D17*
%TO.N,+5V*%
X37133000Y-49506000D02*
X37133000Y-59367000D01*
X37017000Y-49390000D02*
X37133000Y-49506000D01*
X37133000Y-59367000D02*
X37000000Y-59500000D01*
X15000000Y-28500000D02*
X15000000Y-59500000D01*
X16000000Y-27500000D02*
X15000000Y-28500000D01*
X37000000Y-27500000D02*
X16000000Y-27500000D01*
X37500000Y-16000000D02*
X37500000Y-27000000D01*
X71000000Y-15500000D02*
X38000000Y-15500000D01*
X15000000Y-59500000D02*
X23000000Y-59500000D01*
X38000000Y-15500000D02*
X37500000Y-16000000D01*
X70500000Y-84500000D02*
X71000000Y-84000000D01*
X57960000Y-84500000D02*
X70500000Y-84500000D01*
X71000000Y-84000000D02*
X71000000Y-15500000D01*
X37500000Y-27000000D02*
X37000000Y-27500000D01*
X53960000Y-80500000D02*
X57960000Y-84500000D01*
D18*
%TO.N,Net-(Brd1-SDA)*%
X66074000Y-42970560D02*
X67400000Y-44296560D01*
X66074000Y-27426000D02*
X66074000Y-42970560D01*
X66900000Y-26400000D02*
X67000000Y-26500000D01*
X67000000Y-26500000D02*
X66074000Y-27426000D01*
X66900000Y-26350000D02*
X66900000Y-26400000D01*
%TO.N,+3.3V*%
X42875000Y-31596560D02*
X42875000Y-31500000D01*
X40324000Y-20136000D02*
X41500000Y-18960000D01*
%TO.N,Net-(U3-MTCK{slash}GPIO13{slash}ADC2_CH4)*%
X39321000Y-28500000D02*
X39000000Y-28179000D01*
%TO.N,+3.3V*%
X42000000Y-31596560D02*
X42875000Y-31596560D01*
X42000000Y-31596560D02*
X40324000Y-29920560D01*
X40324000Y-29920560D02*
X40324000Y-20136000D01*
%TO.N,Net-(U3-MTCK{slash}GPIO13{slash}ADC2_CH4)*%
X39000000Y-28179000D02*
X39000000Y-17500000D01*
X39321000Y-28500000D02*
X39321000Y-64477560D01*
X47630000Y-19730000D02*
X43230000Y-19730000D01*
X42391810Y-17500000D02*
X39000000Y-17500000D01*
X43000000Y-19500000D02*
X43000000Y-18108190D01*
X43000000Y-18108190D02*
X42391810Y-17500000D01*
X43230000Y-19730000D02*
X43000000Y-19500000D01*
%TO.N,Net-(U3-MTMS{slash}GPIO14{slash}ADC2_CH6)*%
X42652630Y-37839560D02*
X41029628Y-37839560D01*
X41029628Y-37839560D02*
X40223000Y-38646188D01*
X40223000Y-57759560D02*
X42000000Y-59536560D01*
%TO.N,Net-(U3-MTDI{slash}GPIO12{slash}ADC2_CH5)*%
X43326000Y-28624000D02*
X43326000Y-35208122D01*
%TO.N,Net-(U3-MTMS{slash}GPIO14{slash}ADC2_CH6)*%
X56810000Y-19730000D02*
X55634000Y-20906000D01*
%TO.N,Net-(U3-MTDI{slash}GPIO12{slash}ADC2_CH5)*%
X39772000Y-37194998D02*
X39772000Y-59848560D01*
X39772000Y-59848560D02*
X42000000Y-62076560D01*
%TO.N,Net-(U3-ADC2_CH7{slash}GPIO27)*%
X41216438Y-38290560D02*
X40674000Y-38832998D01*
%TO.N,Net-(U3-MTDI{slash}GPIO12{slash}ADC2_CH5)*%
X41758876Y-35208122D02*
X39772000Y-37194998D01*
%TO.N,Net-(U3-MTCK{slash}GPIO13{slash}ADC2_CH4)*%
X39321000Y-64477560D02*
X42000000Y-67156560D01*
%TO.N,Net-(U3-ADC2_CH7{slash}GPIO27)*%
X61400000Y-19730000D02*
X42839440Y-38290560D01*
%TO.N,Net-(U3-MTMS{slash}GPIO14{slash}ADC2_CH6)*%
X55634000Y-20906000D02*
X55634000Y-24858190D01*
%TO.N,Net-(U3-ADC2_CH7{slash}GPIO27)*%
X40674000Y-55670560D02*
X42000000Y-56996560D01*
%TO.N,Net-(U3-MTDI{slash}GPIO12{slash}ADC2_CH5)*%
X43326000Y-35208122D02*
X41758876Y-35208122D01*
%TO.N,Net-(U3-MTMS{slash}GPIO14{slash}ADC2_CH6)*%
X55634000Y-24858190D02*
X42652630Y-37839560D01*
%TO.N,Net-(U3-ADC2_CH7{slash}GPIO27)*%
X40674000Y-38832998D02*
X40674000Y-55670560D01*
X42839440Y-38290560D02*
X41216438Y-38290560D01*
%TO.N,Net-(U3-MTMS{slash}GPIO14{slash}ADC2_CH6)*%
X40223000Y-38646188D02*
X40223000Y-57759560D01*
D17*
%TO.N,+5V*%
X22920000Y-55730000D02*
X22920000Y-59420000D01*
D19*
X22920000Y-59420000D02*
X23000000Y-59500000D01*
D18*
%TO.N,Net-(U1-TX)*%
X36037000Y-45290000D02*
X37017000Y-44310000D01*
X37016475Y-48235405D02*
X36037000Y-47255930D01*
X67400000Y-59536560D02*
X58403000Y-68533560D01*
%TO.N,Net-(U1-RX)*%
X67400000Y-56996560D02*
X56314000Y-68082560D01*
%TO.N,Net-(U1-TX)*%
X36037000Y-47255930D02*
X36037000Y-45290000D01*
%TO.N,Net-(U1-RX)*%
X38870000Y-65736122D02*
X38870000Y-48703000D01*
X56314000Y-68082560D02*
X41216438Y-68082560D01*
X41216438Y-68082560D02*
X38870000Y-65736122D01*
%TO.N,Net-(U1-TX)*%
X37764595Y-48235405D02*
X37016475Y-48235405D01*
X41029628Y-68533560D02*
X38248034Y-65751966D01*
X58403000Y-68533560D02*
X41029628Y-68533560D01*
%TO.N,Net-(U1-RX)*%
X38870000Y-48703000D02*
X37017000Y-46850000D01*
%TO.N,Net-(U1-TX)*%
X38248034Y-65751966D02*
X38248034Y-52500000D01*
X38248034Y-52500000D02*
X38248034Y-48718844D01*
X38248034Y-48718844D02*
X37764595Y-48235405D01*
%TO.N,Net-(U3-VDET_1{slash}GPIO34{slash}ADC1_CH6)*%
X41500000Y-21500000D02*
X43446000Y-23446000D01*
%TO.N,Net-(U3-MTDI{slash}GPIO12{slash}ADC2_CH5)*%
X52220000Y-19980926D02*
X52220000Y-19730000D01*
%TO.N,+3.3V*%
X63549000Y-17049000D02*
X63733000Y-17233000D01*
X41500000Y-18960000D02*
X43446000Y-20906000D01*
%TO.N,Net-(U3-VDET_1{slash}GPIO34{slash}ADC1_CH6)*%
X43743440Y-41756560D02*
X42000000Y-41756560D01*
%TO.N,+3.3V*%
X49000000Y-17862190D02*
X49813190Y-17049000D01*
X63733000Y-18103000D02*
X66900000Y-21270000D01*
D17*
%TO.N,Net-(J2-Pin_2)*%
X20380000Y-74780000D02*
X20380000Y-80260000D01*
D18*
%TO.N,Net-(U3-VDET_1{slash}GPIO34{slash}ADC1_CH6)*%
X43446000Y-23446000D02*
X48117116Y-23446000D01*
D17*
%TO.N,Net-(J2-Pin_1)*%
X22920000Y-74780000D02*
X22920000Y-80260000D01*
D18*
%TO.N,+3.3V*%
X49000000Y-20712000D02*
X49000000Y-17862190D01*
%TO.N,Net-(J2-Pin_1)*%
X22920000Y-80260000D02*
X23160000Y-80500000D01*
%TO.N,Net-(J2-Pin_2)*%
X20380000Y-80260000D02*
X20620000Y-80500000D01*
%TO.N,Net-(J1-Pin_2)*%
X33080000Y-80115000D02*
X32695000Y-80500000D01*
%TO.N,Net-(U3-VDET_1{slash}GPIO34{slash}ADC1_CH6)*%
X50000000Y-17500000D02*
X63000000Y-17500000D01*
%TO.N,+3.3V*%
X48806000Y-20906000D02*
X49000000Y-20712000D01*
%TO.N,Net-(J1-Pin_1)*%
X35620000Y-80115000D02*
X35235000Y-80500000D01*
D17*
%TO.N,Net-(J1-Pin_2)*%
X33080000Y-74780000D02*
X33080000Y-80115000D01*
D18*
%TO.N,Net-(U3-MTDI{slash}GPIO12{slash}ADC2_CH5)*%
X43576926Y-28624000D02*
X52220000Y-19980926D01*
%TO.N,Net-(U3-VDET_1{slash}GPIO34{slash}ADC1_CH6)*%
X48117116Y-23446000D02*
X50000000Y-21563116D01*
%TO.N,+3.3V*%
X63733000Y-17233000D02*
X63733000Y-18103000D01*
X43446000Y-20906000D02*
X48806000Y-20906000D01*
D17*
%TO.N,Net-(J1-Pin_1)*%
X35620000Y-74780000D02*
X35620000Y-80115000D01*
D18*
%TO.N,Net-(U1-DAC_L)*%
X35620000Y-55730000D02*
X34858001Y-54968001D01*
X34858001Y-54968001D02*
X34858001Y-41388999D01*
X34858001Y-41388999D02*
X37017000Y-39230000D01*
%TO.N,Net-(U3-VDET_1{slash}GPIO34{slash}ADC1_CH6)*%
X63000000Y-17500000D02*
X63000000Y-22500000D01*
%TO.N,Net-(U3-MTDI{slash}GPIO12{slash}ADC2_CH5)*%
X43326000Y-28624000D02*
X43576926Y-28624000D01*
%TO.N,+3.3V*%
X49813190Y-17049000D02*
X63549000Y-17049000D01*
%TO.N,Net-(U3-VDET_1{slash}GPIO34{slash}ADC1_CH6)*%
X63000000Y-22500000D02*
X43743440Y-41756560D01*
X50000000Y-21563116D02*
X50000000Y-17500000D01*
%TO.N,Net-(U1-DAC_R)*%
X30540000Y-44321070D02*
X36611070Y-38250000D01*
X37997000Y-40790000D02*
X37017000Y-41770000D01*
X36611070Y-38250000D02*
X37422930Y-38250000D01*
X30540000Y-55730000D02*
X30540000Y-44321070D01*
X37997000Y-38824070D02*
X37997000Y-40790000D01*
X37422930Y-38250000D02*
X37997000Y-38824070D01*
%TO.N,Net-(J1-Pin_1)*%
X35000000Y-80265000D02*
X35235000Y-80500000D01*
%TO.N,Net-(Brd1-SCL)*%
X68726000Y-35350560D02*
X68726000Y-25636000D01*
D17*
%TO.N,+5V*%
X50776560Y-77316560D02*
X53960000Y-80500000D01*
D18*
%TO.N,Net-(Brd1-SCL)*%
X68726000Y-25636000D02*
X66900000Y-23810000D01*
X67400000Y-36676560D02*
X68726000Y-35350560D01*
%TO.N,GND*%
X66000000Y-80500000D02*
X68726000Y-77774000D01*
X68726000Y-48162560D02*
X67400000Y-46836560D01*
D17*
%TO.N,+5V*%
X42000000Y-77316560D02*
X50776560Y-77316560D01*
D18*
%TO.N,GND*%
X68726000Y-77774000D02*
X68726000Y-48162560D01*
%TO.N,Net-(J1-Pin_2)*%
X32460000Y-80265000D02*
X32695000Y-80500000D01*
%TO.N,GND*%
X56500000Y-80500000D02*
X66000000Y-80500000D01*
%TO.N,Net-(J2-Pin_2)*%
X20380000Y-74780000D02*
X20280000Y-74780000D01*
X20280000Y-74780000D02*
X20000000Y-74500000D01*
D19*
%TO.N,+5V*%
X37017000Y-59483000D02*
X37000000Y-59500000D01*
D17*
X37000000Y-59500000D02*
X23000000Y-59500000D01*
%TD*%
M02*
