%TF.GenerationSoftware,KiCad,Pcbnew,9.0.7*%
%TF.CreationDate,2026-02-28T21:28:02-06:00*%
%TF.ProjectId,ESP32_MP3_Jukebox,45535033-325f-44d5-9033-5f4a756b6562,1.0*%
%TF.SameCoordinates,Original*%
%TF.FileFunction,Soldermask,Bot*%
%TF.FilePolarity,Negative*%
%FSLAX46Y46*%
G04 Gerber Fmt 4.6, Leading zero omitted, Abs format (unit mm)*
G04 Created by KiCad (PCBNEW 9.0.7) date 2026-02-28 21:28:02*
%MOMM*%
%LPD*%
G01*
G04 APERTURE LIST*
G04 Aperture macros list*
%AMRoundRect*
0 Rectangle with rounded corners*
0 $1 Rounding radius*
0 $2 $3 $4 $5 $6 $7 $8 $9 X,Y pos of 4 corners*
0 Add a 4 corners polygon primitive as box body*
4,1,4,$2,$3,$4,$5,$6,$7,$8,$9,$2,$3,0*
0 Add four circle primitives for the rounded corners*
1,1,$1+$1,$2,$3*
1,1,$1+$1,$4,$5*
1,1,$1+$1,$6,$7*
1,1,$1+$1,$8,$9*
0 Add four rect primitives between the rounded corners*
20,1,$1+$1,$2,$3,$4,$5,0*
20,1,$1+$1,$4,$5,$6,$7,0*
20,1,$1+$1,$6,$7,$8,$9,0*
20,1,$1+$1,$8,$9,$2,$3,0*%
G04 Aperture macros list end*
%ADD10C,1.524000*%
%ADD11C,1.700000*%
%ADD12R,1.700000X1.700000*%
%ADD13C,1.512000*%
%ADD14RoundRect,0.102000X0.654000X0.654000X-0.654000X0.654000X-0.654000X-0.654000X0.654000X-0.654000X0*%
%ADD15R,2.000000X1.200000*%
%ADD16O,2.000000X1.200000*%
G04 APERTURE END LIST*
D10*
%TO.C,U2*%
X35620000Y-74780000D03*
X33080000Y-74780000D03*
X22920000Y-74780000D03*
X20380000Y-74780000D03*
X20380000Y-55730000D03*
X22920000Y-55730000D03*
X30540000Y-55730000D03*
X33080000Y-55730000D03*
X35620000Y-55730000D03*
%TD*%
D11*
%TO.C,J5*%
X56500000Y-80500000D03*
D12*
X53960000Y-80500000D03*
%TD*%
%TO.C,J2*%
X23160000Y-80500000D03*
D11*
X20620000Y-80500000D03*
%TD*%
%TO.C,Brd1*%
X66900000Y-26350000D03*
X66900000Y-23810000D03*
X66900000Y-21270000D03*
D12*
X66900000Y-18730000D03*
%TD*%
D13*
%TO.C,U1*%
X37017000Y-41770000D03*
X37017000Y-39230000D03*
X18983000Y-41770000D03*
X18983000Y-39230000D03*
X37017000Y-36690000D03*
X37017000Y-44310000D03*
X18983000Y-44310000D03*
X18983000Y-36690000D03*
X37017000Y-46850000D03*
X18983000Y-46850000D03*
X37017000Y-34150000D03*
X18983000Y-34150000D03*
D14*
X37017000Y-49390000D03*
D13*
X18983000Y-49390000D03*
X37017000Y-31610000D03*
X18983000Y-31610000D03*
%TD*%
D11*
%TO.C,J1*%
X32695000Y-80500000D03*
D12*
X35235000Y-80500000D03*
%TD*%
D11*
%TO.C,SW2*%
X52220000Y-22270000D03*
D12*
X52220000Y-19730000D03*
%TD*%
D11*
%TO.C,RV1*%
X41500000Y-24040000D03*
X41500000Y-21500000D03*
D12*
X41500000Y-18960000D03*
%TD*%
D11*
%TO.C,SW1*%
X47630000Y-22270000D03*
D12*
X47630000Y-19730000D03*
%TD*%
D11*
%TO.C,SW3*%
X56810000Y-22270000D03*
D12*
X56810000Y-19730000D03*
%TD*%
%TO.C,SW4*%
X61400000Y-19730000D03*
D11*
X61400000Y-22270000D03*
%TD*%
D15*
%TO.C,U3*%
X42000000Y-31596560D03*
D16*
X42000000Y-34136560D03*
X42000000Y-36676560D03*
X42000000Y-39216560D03*
X42000000Y-41756560D03*
X42000000Y-44296560D03*
X42000000Y-46836560D03*
X42000000Y-49376560D03*
X42000000Y-51916560D03*
X42000000Y-54456560D03*
X42000000Y-56996560D03*
X42000000Y-59536560D03*
X42000000Y-62076560D03*
X42000000Y-64616560D03*
X42000000Y-67156560D03*
X42000000Y-69696560D03*
X42000000Y-72236560D03*
X42000000Y-74776560D03*
X42000000Y-77316560D03*
X67396320Y-77313840D03*
X67396320Y-74773840D03*
X67400000Y-72236560D03*
X67400000Y-69696560D03*
X67400000Y-67156560D03*
X67400000Y-64616560D03*
X67400000Y-62076560D03*
X67400000Y-59536560D03*
X67400000Y-56996560D03*
X67400000Y-54456560D03*
X67400000Y-51916560D03*
X67400000Y-49376560D03*
X67400000Y-46836560D03*
X67400000Y-44296560D03*
X67400000Y-41756560D03*
X67400000Y-39216560D03*
X67400000Y-36676560D03*
X67400000Y-34136560D03*
X67400000Y-31596560D03*
%TD*%
M02*
