M48
; DRILL file {KiCad 9.0.7} date 2026-02-28T21:28:12-0600
; FORMAT={-:-/ absolute / metric / decimal}
; #@! TF.CreationDate,2026-02-28T21:28:12-06:00
; #@! TF.GenerationSoftware,Kicad,Pcbnew,9.0.7
; #@! TF.FileFunction,Plated,1,2,PTH
FMAT,2
METRIC
; #@! TA.AperFunction,Plated,PTH,ComponentDrill
T1C0.762
; #@! TA.AperFunction,Plated,PTH,ComponentDrill
T2C0.800
; #@! TA.AperFunction,Plated,PTH,ComponentDrill
T3C1.000
%
G90
G05
T1
X20.38Y-55.73
X20.38Y-74.78
X22.92Y-55.73
X22.92Y-74.78
X30.54Y-55.73
X33.08Y-55.73
X33.08Y-74.78
X35.62Y-55.73
X35.62Y-74.78
T2
X18.983Y-31.61
X18.983Y-34.15
X18.983Y-36.69
X18.983Y-39.23
X18.983Y-41.77
X18.983Y-44.31
X18.983Y-46.85
X18.983Y-49.39
X37.017Y-31.61
X37.017Y-34.15
X37.017Y-36.69
X37.017Y-39.23
X37.017Y-41.77
X37.017Y-44.31
X37.017Y-46.85
X37.017Y-49.39
X42.0Y-31.597
X42.0Y-34.137
X42.0Y-36.677
X42.0Y-39.217
X42.0Y-41.757
X42.0Y-44.297
X42.0Y-46.837
X42.0Y-49.377
X42.0Y-51.917
X42.0Y-54.457
X42.0Y-56.997
X42.0Y-59.537
X42.0Y-62.077
X42.0Y-64.617
X42.0Y-67.157
X42.0Y-69.697
X42.0Y-72.237
X42.0Y-74.777
X42.0Y-77.317
X67.396Y-74.774
X67.396Y-77.314
X67.4Y-31.597
X67.4Y-34.137
X67.4Y-36.677
X67.4Y-39.217
X67.4Y-41.757
X67.4Y-44.297
X67.4Y-46.837
X67.4Y-49.377
X67.4Y-51.917
X67.4Y-54.457
X67.4Y-56.997
X67.4Y-59.537
X67.4Y-62.077
X67.4Y-64.617
X67.4Y-67.157
X67.4Y-69.697
X67.4Y-72.237
T3
X20.62Y-80.5
X23.16Y-80.5
X32.695Y-80.5
X35.235Y-80.5
X41.5Y-18.96
X41.5Y-21.5
X41.5Y-24.04
X47.63Y-19.73
X47.63Y-22.27
X52.22Y-19.73
X52.22Y-22.27
X53.96Y-80.5
X56.5Y-80.5
X56.81Y-19.73
X56.81Y-22.27
X61.4Y-19.73
X61.4Y-22.27
X66.9Y-18.73
X66.9Y-21.27
X66.9Y-23.81
X66.9Y-26.35
M30
